<svg xmlns="http://www.w3.org/2000/svg" viewBox="0 0 1440 320"><path fill="#0099ff" fill-opacity="1" d="M0,64L24,58.7C48,53,96,43,144,74.7C192,107,240,181,288,213.3C336,245,384,235,432,213.3C480,192,528,160,576,133.3C624,107,672,85,720,106.7C768,128,816,192,864,202.7C912,213,960,171,1008,176C1056,181,1104,235,1152,250.7C1200,267,1248,245,1296,224C1344,203,1392,181,1416,170.7L1440,160L1440,320L1416,320C1392,320,1344,320,1296,320C1248,320,1200,320,1152,320C1104,320,1056,320,1008,320C960,320,912,320,864,320C816,320,768,320,720,320C672,320,624,320,576,320C528,320,480,320,432,320C384,320,336,320,288,320C240,320,192,320,144,320C96,320,48,320,24,320L0,320Z"></path></svg>